<svg xmlns="http://www.w3.org/2000/svg" viewBox="0 0 32 32">
  <!-- Background -->
  <rect width="32" height="32" fill="#040A2C"/>
  <!-- Top rule -->
  <rect x="8.5" y="3" width="15" height="0.8" fill="#B8893C"/>
  <!-- Bottom rule -->
  <rect x="5.5" y="28.5" width="15" height="0.8" fill="#B8893C"/>
  <!-- Left G -->
  <path d="M2.5 16 C2.5 10 5.5 7 10 7 L10 9 C7 9 5.5 11 5.5 16 C5.5 21 7 23 10 23
           L10 17.5 L7.5 17.5 L7.5 16 L12 16 L12 24.5 L10 24.5
           C5.5 24.5 2.5 21.5 2.5 16Z" fill="#B8893C"/>
  <!-- Right G (mirror) -->
  <path d="M29.5 16 C29.5 10 26.5 7 22 7 L22 9 C25 9 26.5 11 26.5 16 C26.5 21 25 23 22 23
           L22 17.5 L24.5 17.5 L24.5 16 L20 16 L20 24.5 L22 24.5
           C26.5 24.5 29.5 21.5 29.5 16Z" fill="#B8893C"/>
  <!-- I-bars -->
  <rect x="13.5" y="11.5" width="1" height="9" fill="#B8893C" opacity="0.65"/>
  <rect x="17.5" y="11.5" width="1" height="9" fill="#B8893C" opacity="0.65"/>
</svg>
